<svg xmlns="http://www.w3.org/2000/svg" width="2104" height="1604" viewBox="0 0 2104 1604">
  <defs>
    <style>
      .cls-1 {
        fill: #fff;
        fill-rule: evenodd;
      }
    </style>
  </defs>
  <path class="cls-1" d="M381,2H668c37.29,0,93.053-6.721,115,10,27.81,21.188,19,86.881,19,135,0,31.148,5.88,79.026-7,99-22.651,35.127-108.636,23.006-165,23-170.327-.019-339.545-34.02-361,121v636c0,85.07-12.722,200.72,23,252,55.792,80.1,207.551,57.02,340,57,53.34-.01,137.664-11.5,161,20,11.755,15.87,17,189.17,6,216-5.687,13.87-19.5,25.93-35,30q-115.989.495-232,1c-67.038,0-143.956,5.78-202-6C159.591,1561.41,42.662,1445.29,8,1275c-15.153-74.45-6-174.74-6-259V790C2,600.015-22.651,338.817,47,216,100.224,122.148,177.984,50.842,291,17,318.687,8.709,350.349,10.865,381,2Zm821,1100H745c-74.869,0-151.31,7.98-185-33-41.85-50.9-25-214.607-25-307,0-66.489-12.386-168.086,14-212,33.117-55.117,105.351-48,194-48h459q0.495-209.48,1-419c5.79-27.486,21.9-50.628,42-64,95.11-63.261,187.7,71.692,234,118q228.975,229.478,458,459c42.12,42.115,155.84,132.316,165,195,10.8,73.881-103.47,155.471-141,193q-238.98,239.475-478,479c-42.41,42.42-129.82,168.64-219,132-26.41-10.85-49.14-33.69-58-62-10.45-33.39-4-87.69-4-128V1102Z"/>
</svg>
