<svg xmlns="http://www.w3.org/2000/svg" width="2138" height="1638" viewBox="0 0 2138 1638">
  <defs>
    <style>
      .cls-1 {
        fill: #fff;
        fill-rule: evenodd;
      }
    </style>
  </defs>
  <path class="cls-1" d="M1378,2h268c50.33,0,106.56-3.974,151,4,161.05,28.9,276.04,130.39,321,275,34.98,112.51,18,323.024,18,467v340c0,60.39,5.16,129.13-5,182-30.69,159.66-133.49,271.23-279,316-94.74,29.15-240.95,16.99-361,17-39.78,0-106.9,8.85-133-8-9.98-6.45-19.18-19.61-22-33-5.74-27.24-4.96-176.75,3-196,19.14-46.32,119.14-31.01,183-31,168.39,0.02,326.35,31.91,347-122V546c0-122.131,13.48-212.011-65-259-58.55-35.056-234.12-18.012-326-18-37.43,0-99.26,7.9-122-9-8.64-6.424-17.45-18.771-20-31-5.84-27.99-4.45-181.105,4-199C1347.46,14.212,1361.1,8.767,1378,2ZM669,1136H212c-91.736.01-164.6,6.91-198-51C-11.278,1041.18,2,938.165,2,874c0-92.2-16.879-255.3,25-306,33.68-40.773,110.351-33,185-33H669V233c0-39.205-6.863-92.349,3-126,7.311-24.945,24.735-45.852,45-58,93.481-56.04,186.022,78.017,231,123q227.97,228.477,456,457c41.77,41.768,155.46,132.463,165,194,11.72,75.627-103.09,157.089-141,195q-238.98,239.475-478,479c-42.869,42.87-129.176,168.11-219,132a101.218,101.218,0,0,1-59-65c-9.885-33.99-3-87.46-3-127V1136Z"/>
</svg>
